<svg viewBox="0 0 340 340" xmlns="http://www.w3.org/2000/svg"><path d="m305.882 157.706-33.682-19.324-33.685 19.324c-7.215 4.14-12.01 12.65-12.535 22.251l-6.58 120.286h105.6l-6.582-120.286c-.525-9.601-5.318-18.111-12.536-22.251z" fill="#fff"/><path d="m272.109 173.926a5.127 5.127 0 0 0 -5.028 4.784l-5.281 78.749a13.18 13.18 0 0 0 3.342 9.858l7.053 7.5 7.054-7.5a13.18 13.18 0 0 0 3.342-9.858l-5.279-78.749a5.128 5.128 0 0 0 -5.203-4.784z" fill="#fe878d"/><path d="m219.4 300.243h105.6l-1.06-19.37h-103.485z" fill="#565e68"/><path d="m272.197 130.398-12.835-1.883v19.371l12.835 14.259 12.836-14.259v-19.371z" fill="#d69d95"/><path d="m251.531 150.238c-13.5 7.872-23.991 11.052-25.554 29.719l-6.577 120.286h28.862z" fill="#618cbf"/><path d="m305.882 157.706-13.018-7.468 3.273 150.005h28.863l-6.582-120.286c-.525-9.601-5.318-18.111-12.536-22.251z" fill="#618cbf"/><path d="m259.362 128.515v12.996l25.671 4.339v-17.335l-12.836 1.883z" fill="#af6c6c"/><path d="m239.5 110.824h9.221v-23.514h-9.221c-15.567.539-15.559 22.98 0 23.514z" fill="#af6c6c"/><path d="m304.9 110.824h-9.22v-23.514h9.22c15.562.539 15.553 22.98 0 23.514z" fill="#af6c6c"/><path d="m301.37 55.355h-52.251s-10.331 19.456-7.428 40.27v8.729a30.472 30.472 0 0 0 60.914 0v-8.729c1.904-12.443-1.235-40.27-1.235-40.27z" fill="#d69d95"/><path d="m302.8 75.272h.152c-.447-9.107-1.324-17.529-1.535-19.477h-52.517a80.38 80.38 0 0 0 -7.078 23.3 26.794 26.794 0 0 0 26.565-1.671c10.056 5.708 22.612 6.236 31.5-2.353a20.786 20.786 0 0 0 2.913.201z" fill="#af6c6c"/><path d="m253.644 69.608s-8.823 8.823-11.953 26.017c0 0-21.3-19.23-1.621-46.6z" fill="#565e68"/><path d="m289.615 65.988a72.3 72.3 0 0 1 12.99 29.637s18.231-17.4 6.693-44.331z" fill="#565e68"/><path d="m231.747 70.962a28.558 28.558 0 0 0 14.261 10.673 47.594 47.594 0 0 1 6.763-11.054l-13.609-20.261c-5.17 7.62-7.181 14.58-7.415 20.642z" fill="#424854"/><path d="m309.594 52.036-19.508 14.564a69.5 69.5 0 0 1 7.043 12.04 25.327 25.327 0 0 0 2.192-1.833 22.68 22.68 0 0 0 13.364-2.082 42.38 42.38 0 0 0 -3.091-22.689z" fill="#424854"/><path d="m75.642 143.039h127.97v97.215h-127.97z" fill="#8095aa"/><path d="m94.592 184.242a23.372 23.372 0 0 0 23.371-23.371v-17.832h-42.321v97.215h59.38c-8.18-37.236-40.809-45.788-40.809-45.788v-10.224z" fill="#516a82"/><path d="m94.213 160.779h90.829v61.735h-90.829z" fill="#fff"/><path d="m94.213 194.466v28.048h34.172a60.565 60.565 0 0 0 -34.172-28.048z" fill="#f0f0f0"/><path d="m94.213 184.242a23.386 23.386 0 0 0 23.75-23.463h-23.75z" fill="#f0f0f0"/><path d="m123.307 240.254h32.642v37.46h-32.642z" fill="#516a82"/><path d="m45.714 174.865h33.071v26.911h-33.071z" fill="#ffd1bd"/><path d="m45.714 197.162 33.071-9.599v-12.698h-33.071z" fill="#fca490"/><path d="m108.483 104.483v49.991a21.7 21.7 0 0 1 -21.7 21.7h-22.273v-69.691z" fill="#ffd1bd"/><path d="m62.249 201.776h-18.03a21.571 21.571 0 0 0 -19.829 13.136c-10.533 22.256-9.348 51.979-9.153 80.331h159.2v-27.974h-29.85a13.833 13.833 0 0 1 -13.011-9.132l-8.59-23.768a49.372 49.372 0 0 0 -46.434-32.593z" fill="#c7e2ff"/><path d="m102.583 295.243h227.417v15.908h-227.417z" fill="#ffc998"/><path d="m10 311.15v-40.5a17.1 17.1 0 0 1 17.1-17.1h67.3a17.1 17.1 0 0 1 16.9 14.486l6.665 43.11z" fill="#8095aa"/><path d="m174.432 267.269h9.727a19.453 19.453 0 0 1 19.453 19.454v8.52h-29.18z" fill="#ffd1bd"/><path d="m64.51 130.073c7.508 8.639 23.678 9.73 27.734-1.869a4.44 4.44 0 0 1 3.571-2.848 22.138 22.138 0 0 0 12.668-5.68v-15.193l-43.973 2z" fill="#fca490"/><path d="m87.268 121.006c.133 3.816-1.086 9.13-8.048 11.751a11.351 11.351 0 0 0 -6.184 15.343 12.518 12.518 0 0 0 6.917 6.564 11.029 11.029 0 0 1 6.118 13.856c-5.278 15.038-19.774 13.6-36.194 13.471-13.338-.44-32.117-9.432-32.432-30.841v-32.818a42.122 42.122 0 0 1 43.655-42.339 119.229 119.229 0 0 1 19.2 2.137c6.423 1.339 12.233-.992 17.662-4.644a4.509 4.509 0 0 1 6.984 2.737 17.612 17.612 0 0 1 -.446 9.9 38.7 38.7 0 0 0 7.208-.474 4.505 4.505 0 0 1 5.039 5.578c-2.23 8.952-8.457 23.177-25.62 25.155a4.437 4.437 0 0 0 -3.859 4.624z" fill="#ff806b"/><path d="m10 270.652v40.5h90.088l-5.254-41.333c-1.229-14.1-12.778-16.263-12.778-16.263h-54.956a17.1 17.1 0 0 0 -17.1 17.096z" fill="#4a617c"/><path d="m258.037 34.315s-21.719-4.977-23.3 17.194a24.218 24.218 0 0 0 6.921 16.779 18.865 18.865 0 0 0 26.562-.038c7.021 5.243 19.988 9.221 27.827-1.583 8.385 3.859 20.587-4.227 17.6-17.97-4.776-20.941-36.947-24.528-55.61-14.382z" fill="#565e68"/><g fill="#2f313f"><path d="m272.041 169.926a9.074 9.074 0 0 0 -8.951 8.516l-5.279 78.749a17.1 17.1 0 0 0 4.418 12.866l7.054 7.5a4 4 0 0 0 5.828 0l7.054-7.5a17.1 17.1 0 0 0 4.419-12.866l-5.279-78.749a9.152 9.152 0 0 0 -9.264-8.516zm4.3 94.65-4.14 4.4c-2.933-3.214-6.967-6.232-6.4-11.252l5.279-78.749a1.128 1.128 0 0 1 2.25 0l5.28 78.749a9.206 9.206 0 0 1 -2.273 6.852z"/><path d="m230.744 51.224a23.287 23.287 0 0 0 .456 5.2 37.133 37.133 0 0 0 -.639 29.666c-12.564 8.54-6.485 28.646 8.813 28.724a33.672 33.672 0 0 0 15.987 19.053v9.557c-16.249 9.973-31.639 13.369-33.378 36.31l-5.522 100.917c-.168 5.226 7.551 5.739 7.988.437l5.522-100.916c.451-8.252 4.487-15.532 10.532-19l6.875-3.944-2.7 123.554a4 4 0 0 0 3.912 4.087h.089a4 4 0 0 0 4-3.912l2.8-128.378 1.8-1.032 11.946 13.27a4 4 0 0 0 5.945 0l11.945-13.27 1.8 1.032 2.8 128.38a4 4 0 0 0 8-.175l-2.7-123.556 6.875 3.944c6.044 3.468 10.08 10.748 10.531 19l5.522 100.916c.408 5.225 8.141 4.867 7.989-.437l-5.523-100.917c-1.735-22.949-17.172-26.361-33.379-36.31v-9.607a33.531 33.531 0 0 0 17.57-29.464v-7.148a39.513 39.513 0 0 0 3.164-4.137 7.777 7.777 0 0 1 .558 11.539c-3.693 3.742 1.784 9.331 5.6 5.713 7.164-6.6 5.827-19.236-2.3-24.35a43.011 43.011 0 0 0 2.758-25.044c5.108-12.712-1.375-27.384-19.281-33.67-12.333-4.015-26.973-3.061-39.762 2.882-12.356-1.938-25.766 4.245-26.593 21.086zm1 47.843a7.722 7.722 0 0 1 2.671-5.834 33.084 33.084 0 0 0 3.279 4.073c.021 1.711-.064 7.718.086 9.319a7.765 7.765 0 0 1 -6.039-7.558zm49.292 47.284-8.836 9.815-8.836-9.815v-9.427a39.986 39.986 0 0 0 17.672-.023zm-37.226-105.901c5.3-3.952 13.267-2.251 13.334-2.236a3.994 3.994 0 0 0 2.9-.439c6.019-3.49 14.194-4.574 19.994-4.869 11.97-.923 27.4 5 29.716 16.731a12.118 12.118 0 0 1 -2.54 10.928 8.331 8.331 0 0 1 -9.714 2.376c-.044-.018-4.5-1.868-5.51-6.159a4 4 0 0 0 -7.787 1.832c1.977 8.4 10.042 11.644 10.385 11.778a16.6 16.6 0 0 0 14.537-1.116 34.856 34.856 0 0 1 -4.673 17.224c-1.4-3.528-2.314-10.877-7.722-8.954a4 4 0 0 0 -2.143 5.235 66.479 66.479 0 0 1 4.013 13.259v8.313a26.474 26.474 0 0 1 -52.913 0v-8.319a56.769 56.769 0 0 1 3.538-11.8c1.978-4.87-5.215-7.939-7.36-3.137q-1.168 2.742-2.087 5.636a28.039 28.039 0 0 1 -3.706-18.843 23.036 23.036 0 0 0 32.449 5.347 41.442 41.442 0 0 0 7.759 3.363c4.19 1.279 14.94 2.659 13.966-4.332a4 4 0 0 0 -4.8-2.992 12.517 12.517 0 0 1 -6.693-.284 27.938 27.938 0 0 1 -7.921-3.771 43.368 43.368 0 0 1 -5.968-6.366c-2.976-4.306-9.483 0-6.665 4.424a35.581 35.581 0 0 0 3.888 4.589c-18.511 9.164-30.608-17.515-18.277-27.418z"/><path d="m137.627 218.514c-5.257.116-5.285 7.872 0 8h47.414a4 4 0 0 0 4-4v-61.735a4 4 0 0 0 -4-4h-76.981c-5.245.1-5.272 7.9 0 8h72.982v53.735z"/><path d="m155.948 257.554a4 4 0 0 0 4-4v-9.3h43.664a4 4 0 0 0 4-4v-97.215a4 4 0 0 0 -4-4h-76.9c-5.235.1-5.281 7.9 0 8h72.9v89.215h-57.1c-5.271.132-5.278 7.866 0 8h9.439v9.3a4 4 0 0 0 3.997 4z"/><path d="m330 291.243h-122.388v-4.52a23.481 23.481 0 0 0 -23.454-23.454h-39.571a9.862 9.862 0 0 1 -9.25-6.492l-8.589-23.768a53.547 53.547 0 0 0 -43.963-34.866v-17.893l.09-.073c15.6 1.534 29.6-9.68 29.607-25.7v-32.69c-.13-5.261-7.863-5.287-8 0v32.69a17.718 17.718 0 0 1 -15.5 17.551c4.022-7.882.687-17.856-7.569-21.084-4.029-1.492-6.623-6.309-4.865-10.424a7.091 7.091 0 0 1 4.081-4.017c8.508-3.2 10.955-10.206 10.647-16.12 14.668-1.626 25.238-11.674 29.351-28.185 1.676-6.759-4.752-12.1-11.214-10.271.266-4.579-.615-10.836-5.7-12.636a8.542 8.542 0 0 0 -8.01.9c-4.1 2.838-9.558 5.206-14.6 4.023-18.614-3.8-38.841-4-53.487 10.624a46.047 46.047 0 0 0 -14.165 33.5v32.812c-.254 16.077 11.219 29.262 28.268 33.84v12.924a25.55 25.55 0 0 0 -21 15.426 116.7 116.7 0 0 0 -7.619 26.243 4 4 0 0 0 7.887 1.342 108.7 108.7 0 0 1 7.078-24.442 17.787 17.787 0 0 1 17.646-10.707h30.841a45.5 45.5 0 0 1 42.673 29.952l8.589 23.768a17.884 17.884 0 0 0 16.773 11.773h25.845v19.974h-36.551a4 4 0 0 0 0 8h192.119v7.907h-204.608l-6.141-39.722a20.986 20.986 0 0 0 -20.851-17.874h-67.3a21.122 21.122 0 0 0 -21.1 21.098v40.5a4 4 0 0 0 4 4h320a4 4 0 0 0 4-4v-15.909a4 4 0 0 0 -4-4zm-255.215-93.467h-25.071v-11.787c6.528-.135 19.317.69 25.071-1.5zm7.533-30.643c-2.844 8.08-9.384 10.808-18.336 10.859-5.615-.224-17.308.823-22.521-1.423-9.131-3.246-20.015-10.29-20.015-25.419v-32.818c-.435-20.732 17.515-38.774 38.216-38.362a114.137 114.137 0 0 1 19.838 2.08c7.155 1.642 14.849-1.153 20.724-5.266.257-.238.825-.008.81.277a13.471 13.471 0 0 1 -.274 7.639 4.027 4.027 0 0 0 3.542 5.419 42.552 42.552 0 0 0 8.041-.52.4.4 0 0 1 .392.142c-1.7 10.444-9.044 22.84-25.751 22.873a4.068 4.068 0 0 0 -4.252 5.338c.472 1.359 2.455 8.285-4.921 11.061-8.1 2.85-12.184 13.08-8.405 20.769a16.4 16.4 0 0 0 9.029 8.584 6.974 6.974 0 0 1 3.883 8.767zm117.294 124.11h-21.18v-19.974h5.726a15.471 15.471 0 0 1 15.454 15.454zm-185.612 15.907v-36.5a13.113 13.113 0 0 1 13.1-13.1h67.3a13.029 13.029 0 0 1 12.944 11.1l5.952 38.5z"/><path d="m258.6 98.48c-4.676.969-3.985 7.889.78 7.93 5.778-.245 4.95-8.81-.78-7.93z"/><path d="m282.71 100.87c-2.1-4.814-9.325-1.821-7.391 3.06 2.088 4.827 9.316 1.834 7.391-3.06z"/><path d="m97.03 131.45c-4.68.956-3.993 7.9.78 7.92 5.778-.229 4.953-8.812-.78-7.92z"/></g></svg>