<svg viewBox="0 0 500 500" xmlns="http://www.w3.org/2000/svg"><path d="m242.46 441.85h58.15a0 0 0 0 1 0 0v26.66a0 0 0 0 1 0 0h-58.15a13.33 13.33 0 0 1 -13.33-13.33 13.33 13.33 0 0 1 13.33-13.33z" fill="#f68d88"/><path d="m359.08 441.86v4.85h-.34a9.42 9.42 0 0 0 -.88.88 10.63 10.63 0 0 0 -2 3.39 12.42 12.42 0 0 0 -.72 4.21 11.76 11.76 0 0 0 2.08 6.82 9.15 9.15 0 0 0 1.49 1.66h.33v4.85h-58.11a13.33 13.33 0 1 1 0-26.66z" fill="#ecbdbb"/><path d="m358.75 463.67h-56.53a8.48 8.48 0 1 1 0-17h56.52a9.42 9.42 0 0 0 -.88.88 10.63 10.63 0 0 0 -2 3.39 12.42 12.42 0 0 0 -.72 4.21 11.76 11.76 0 0 0 2.08 6.82 9.15 9.15 0 0 0 1.53 1.7z" fill="#fff"/><path d="m261.58 468.51h-10a13.33 13.33 0 1 1 0-26.66h10a13.33 13.33 0 1 0 0 26.66z" fill="#404b7c"/><path d="m290.49 468.51h-10a13.33 13.33 0 1 1 0-26.66h10a13.33 13.33 0 1 0 0 26.66z" fill="#404b7c"/><path d="m231.62 415.19h58.15a0 0 0 0 1 0 0v26.66a0 0 0 0 1 0 0h-58.15a13.33 13.33 0 0 1 -13.33-13.33 13.33 13.33 0 0 1 13.33-13.33z" fill="#9ab3da"/><path d="m348.24 415.19v4.81h-.34a9.42 9.42 0 0 0 -.88.88 10.63 10.63 0 0 0 -2 3.39 12.42 12.42 0 0 0 -.72 4.21 11.76 11.76 0 0 0 2.08 6.82 9.15 9.15 0 0 0 1.49 1.66h.33v4.85h-58.12a13.33 13.33 0 1 1 0-26.66h58.15z" fill="#e9f3ff"/><path d="m347.91 437h-56.53a8.48 8.48 0 1 1 0-17h56.52a9.42 9.42 0 0 0 -.88.88 10.63 10.63 0 0 0 -2 3.39 12.42 12.42 0 0 0 -.72 4.21 11.76 11.76 0 0 0 2.08 6.82 9.15 9.15 0 0 0 1.53 1.7z" fill="#fff"/><path d="m250.74 441.85h-10a13.33 13.33 0 1 1 0-26.66h10a13.33 13.33 0 1 0 0 26.66z" fill="#404b7c"/><path d="m279.65 441.85h-10a13.33 13.33 0 1 1 0-26.66h10a13.33 13.33 0 1 0 0 26.66z" fill="#404b7c"/><path d="m249 388.53h58.15a0 0 0 0 1 0 0v26.66a0 0 0 0 1 0 0h-58.15a13.33 13.33 0 0 1 -13.33-13.33 13.33 13.33 0 0 1 13.33-13.33z" fill="#f68d88"/><path d="m365.58 388.53v4.85h-.34a9.42 9.42 0 0 0 -.88.88 10.63 10.63 0 0 0 -2 3.39 12.42 12.42 0 0 0 -.72 4.21 11.76 11.76 0 0 0 2.08 6.82 9.15 9.15 0 0 0 1.49 1.66h.33v4.85h-58.11a13.33 13.33 0 1 1 0-26.66z" fill="#ecbdbb"/><path d="m365.26 410.34h-56.54a8.48 8.48 0 1 1 0-17h56.52a9.42 9.42 0 0 0 -.88.88 10.63 10.63 0 0 0 -2 3.39 12.42 12.42 0 0 0 -.72 4.21 11.76 11.76 0 0 0 2.08 6.82 9.15 9.15 0 0 0 1.54 1.7z" fill="#fff"/><path d="m268.09 415.19h-10a13.33 13.33 0 1 1 0-26.66h10a13.33 13.33 0 1 0 0 26.66z" fill="#404b7c"/><path d="m297 415.19h-10a13.33 13.33 0 1 1 0-26.66h10a13.33 13.33 0 1 0 0 26.66z" fill="#404b7c"/><path d="m233.11 361.86h58.15a0 0 0 0 1 0 0v26.66a0 0 0 0 1 0 0h-58.15a13.33 13.33 0 0 1 -13.33-13.33 13.33 13.33 0 0 1 13.33-13.33z" fill="#9ab3da"/><path d="m349.73 361.87v4.85h-.34a9.42 9.42 0 0 0 -.88.88 10.63 10.63 0 0 0 -2 3.39 12.42 12.42 0 0 0 -.72 4.21 11.76 11.76 0 0 0 2.08 6.82 9.15 9.15 0 0 0 1.49 1.66h.33v4.85h-58.11a13.33 13.33 0 1 1 0-26.66z" fill="#e9f3ff"/><path d="m349.4 383.68h-56.53a8.48 8.48 0 1 1 0-17h56.52a9.42 9.42 0 0 0 -.88.88 10.63 10.63 0 0 0 -2 3.39 12.42 12.42 0 0 0 -.72 4.21 11.76 11.76 0 0 0 2.08 6.82 9.15 9.15 0 0 0 1.53 1.7z" fill="#fff"/><path d="m252.23 388.52h-10a13.33 13.33 0 1 1 0-26.66h10a13.33 13.33 0 1 0 0 26.66z" fill="#404b7c"/><path d="m281.14 388.52h-10a13.33 13.33 0 1 1 0-26.66h10a13.33 13.33 0 1 0 0 26.66z" fill="#404b7c"/><path d="m264.42 312.88s-2.56 7.11-5.1 14.06c-2.41 6.57-4.81 13-5 13.06-.39.14-8 .67-8 .67l3.77-16.14 3.14-13.38z" fill="#ecbdbb"/><path d="m264.42 312.88s-2.56 7.11-5.1 14.06l-9.2-2.41 3.14-13.38z" fill="#404b7c"/><path d="m296.54 356v.54l-.39 5.22-25.21.63-31.77.79s0-2 .27-5c.51-5.58 2-14.79 6.56-22.18a40.39 40.39 0 0 0 10.63.27s14.22 6.32 19.34 6.85h.31c2.6.48 21.33 3.88 20.26 12.88z" fill="#404b7c"/><path d="m274.13 349.36h-.13a190 190 0 0 1 -20.53-6.58.5.5 0 1 1 .38-.93 188.33 188.33 0 0 0 20.41 6.54.5.5 0 0 1 -.13.97z" fill="#9ab3da"/><ellipse cx="248.56" cy="347.75" fill="#f68d88" rx="5.45" ry="4.21" transform="matrix(.12706461 -.99189444 .99189444 .12706461 -127.94 550.14)"/><path d="m297.08 356.55a39.82 39.82 0 0 1 -1 5.24l-25.21.63a41.61 41.61 0 0 1 .1-5.14c.36-4.5 1.61-10.19 5.24-14.12a13.32 13.32 0 0 1 1.7-1.57 25.92 25.92 0 0 1 14.09 3.91c4.71 2.97 5.47 7.08 5.08 11.05z" fill="#f68d88"/><path d="m297.08 356.55a39.82 39.82 0 0 1 -1 5.24l-25.21.63-31.77.79s0-2 .27-5l31.6-.9 25.51-.71z" fill="#f68d88"/><path d="m288.21 253.34c0 3.19-19.41 57.68-19.41 57.68l-19.67-.53 7.71-40.41-10.84 3.83-19.22 6.76-26.55 9.33a29 29 0 0 1 -4.24 1.76c-6.15 2.05-17.81 4.09-27.12-5.22-13.29-13.29-.72-51.5 23.92-51.84 19.41-.27 86.92 5.85 88.78 6.65s6.64 8.8 6.64 11.99z" fill="#9ab3da"/><path d="m263 255.86c-2.22 3.94-6.2 14.23-6.2 14.23l-10.8 3.82 16.45-18.05z" fill="#404b7c"/><path d="m226.76 280.68-26.53 9.32a29 29 0 0 1 -4.24 1.76l8.41-10.72 6.86-7.67z" fill="#404b7c"/><path d="m256.32 306.92h-.12a.5.5 0 0 1 -.36-.61c4.4-17.34 10.92-43.65 10.88-45.08s-3.56-4.47-4.31-4.84c-2.11.48-33.69 9.33-50.39 14a.5.5 0 1 1 -.27-1c15.06-4.23 50.14-14.08 50.68-14.08.88 0 5.14 3.87 5.28 5.78.14 1.76-9.78 40.93-10.91 45.4a.5.5 0 0 1 -.48.43z" fill="#404b7c"/><path d="m248.16 306c.91-.28 12.74.73 15.59.6s8-.07 8.64.8-2.79 12.69-2.92 13.42-8.57.93-14 .86-10-.13-10.23-2.13 1.22-13.05 2.92-13.55z" fill="#e9f3ff"/><path d="m151.45 422.4-1.74 8.91-1.45 7.44-8.91.93 1.26-11.26.61-5.48z" fill="#ecbdbb"/><path d="m151.45 422.4-1.74 8.91-9.1-2.89.61-5.48z" fill="#404b7c"/><path d="m170.72 468.52h-40.4a25.35 25.35 0 0 1 .09-6.1c.05-.5.11-1 .18-1.59a38.66 38.66 0 0 1 .75-3.88c.74-3.15 1.88-7.21 3-10.87 1.53-4.91 3.08-9.12 3.66-9.45 1.86-1.06 11.3-1.19 13.43.81s6.38 9.7 6.38 9.7 6.38-.66 9.7 4.78 3.21 16.6 3.21 16.6z" fill="#404b7c"/><path d="m148.79 452.67h-.14c-8.12-2.45-8.72-13-8.52-14.06a.5.5 0 1 1 1 .18c-.16.85.45 10.69 7.83 12.92a.5.5 0 0 1 -.17.96z" fill="#9ab3da"/><path d="m170.72 468.52h-40.4a25.35 25.35 0 0 1 .09-6.1h16c-.13-14.76 11.44-15.29 11.44-15.29s6.38-.66 9.7 4.78 3.17 16.61 3.17 16.61z" fill="#f68d88"/><path d="m138.22 453c-.7 3.47-2.95 5.94-5 5.53a2.88 2.88 0 0 1 -1.89-1.55c.74-3.15 1.88-7.21 3-10.87a2.41 2.41 0 0 1 1.41-.15c2.09.38 3.18 3.54 2.48 7.04z" fill="#f68d88"/><path d="m152.51 238.59s-2.79 14.75-3.32 21.4-2.57 84.53-2.57 84.53-3.9 14.35-4.43 20.91-2.48 50-2.48 50l14.89-1.06s22.51-69.47 29.95-91.8 19.85-41.47 19.85-41.47 4.58-30.17 5.67-42.53c2.12-24.13-49.18-41.41-57.56.02z" fill="#9ab3da"/><path d="m204.39 281.57a.49.49 0 0 1 -.21 0 .5.5 0 0 1 -.29-.52l5.67-42.53a.5.5 0 0 1 1 .13l-5.46 40.92 5.69-6.35c2.49-12.82 5.78-46 5.81-46.34a.5.5 0 0 1 1 .1c0 .34-3.35 33.8-5.85 46.56a.5.5 0 0 1 -.12.24l-6.87 7.67a.5.5 0 0 1 -.37.12z" fill="#404b7c"/><path d="m143.61 406.87h-.05a.5.5 0 0 1 -.45-.55c.19-1.85 4.63-45.47 6-50.93s2.67-13.39 2.69-13.39c0-.32 1.24-38 1.41-51s-.61-39.06-.62-39.32a.5.5 0 0 1 .48-.52.51.51 0 0 1 .52.48c0 .26.8 26.39.62 39.36s-1.41 50.67-1.42 51c0 .14-1.27 8.12-2.67 13.58s-6 50.33-6 50.79a.5.5 0 0 1 -.51.5z" fill="#404b7c"/><path d="m138.16 410.18c-1.41.3-2.66 12.76-2.26 14.75s7.58 2.66 10.5 2.79a21 21 0 0 0 8.11-1.46c1.33-.66 4.92-15.95 4.78-16.61s-19.29.13-21.13.53z" fill="#e9f3ff"/><path d="m276.87 146.21c-.35 2.13-5.14 9.92-7.26 11.16-1.17.69-13.14 1.42-26.74 1a161.36 161.36 0 0 1 -26.53-2.65c-1.73-.36-3.36-.77-4.86-1.21-18.43-5.49-15.06-36.15 14.18-31.19 1 .18 25.69 5.14 25.69 5.14l-2.48-12.23 7.07.19 12.6.34s8.69 27.33 8.33 29.45z" fill="#f68d88"/><path d="m242.87 158.4a161.36 161.36 0 0 1 -26.53-2.65c-1.33-4.24-1.69-8.78-1-10.25 1.41-2.83 8.06-5.49 8.06-5.49z" fill="#404b7c"/><path d="m266.15 118-14.8 10.45-2.48-12.23 7.07.19c5.17.8 10.21 1.59 10.21 1.59z" fill="#404b7c"/><path d="m266.15 148.44a.5.5 0 0 1 -.33-.12c-6.69-5.73-13.84-17.15-13.92-17.26a.5.5 0 1 1 .85-.53c.07.11 7.14 11.4 13.72 17a.5.5 0 0 1 -.32.91z" fill="#ecbdbb"/><path d="m245.82 109.53c-.21.68.4 12.23.53 12.76s10.23 3.06 16.22 2.26 9.7-4.39 9.84-5.32-3.72-11.56-4.12-11.83a73.82 73.82 0 0 0 -11.56-1.46c-3.07 0-10.38 1.86-10.91 3.59z" fill="#9ab3da"/><path d="m247.72 101.38a67.91 67.91 0 0 1 1.77 8.42s4.78 1.68 8.15 1.51a9.46 9.46 0 0 0 5.49-2.13l-5.67-10.37s-.09-10.54-1-13-2.13-5.14-2.13-5.14l-13.73 2.48s.66 7.93.66 10.26 6.46 7.97 6.46 7.97z" fill="#ecbdbb"/><path d="m242.61 232.86c0 1.06-2.22 4.6-4.52 5.4s-16.13 5.85-39.52 6.38-49.71-5.05-49.71-5.05-2.13-1.33-1.33-5.85 4.7-11.33 3.64-28c-.06-.9-.1-1.94-.1-3.06-.09-8 .94-21.35 2.19-34.35 1.82-19 4.1-37.32 4.1-37.32a66.82 66.82 0 0 1 27.38-12.1c17.63-1.23 39.79 4.25 39.79 4.25 9.74 32.43 8 90.65 8.94 93.93s3.55 6 4.17 7.08.53 4.43.53 4.43 4.44 3.2 4.44 4.26z" fill="#f68d88"/><path d="m230.53 157.15a.5.5 0 0 1 -.5-.45 202 202 0 0 0 -5-30 .5.5 0 0 1 1-.25 203 203 0 0 1 4.97 30.15.5.5 0 0 1 -.45.55h-.05z" fill="#ecbdbb"/><path d="m169.13 162c-.41.14-12.74 28.45-18.05 40.7-.09-8 .94-21.35 2.19-34.35z" fill="#404b7c"/><path d="m206.06 233.36a202.48 202.48 0 0 1 -32.35-2.67.5.5 0 0 1 .16-1c36.61 5.94 60.75.07 61 0a.5.5 0 1 1 .24 1c-.16.04-10.98 2.67-29.05 2.67z" fill="#ecbdbb"/><path d="m163.46 239.39a.5.5 0 0 1 -.41-.22c-3-4.47-2.16-7.93-1-12.71a54.8 54.8 0 0 0 2-12.07c.52-13.06 0-34.35 0-34.57a.5.5 0 0 1 .49-.51.53.53 0 0 1 .51.49c0 .21.53 21.54 0 34.63a55.66 55.66 0 0 1 -2 12.27c-1.19 4.7-2 7.8.81 11.9a.5.5 0 0 1 -.4.79z" fill="#ecbdbb"/><path d="m196.2 113c-3.65-.14-9.5.13-9.5.13l-6.31 9.77s6.78 5.25 13.62 6.25l6.31-6 5.05 5.18a48.33 48.33 0 0 0 6.78-6.11l-4.65-7.24s-7.71-1.83-11.3-1.98z" fill="#9ab3da"/><path d="m157 131.22c-13.61 8.9-35.09 58.44-35.27 64.46s12.41 34.73 12.41 34.73l16.55-12.47-6.27-21s12.41-17 24.81-31.9.69-42.29-12.23-33.82z" fill="#f68d88"/><path d="m156.37 181.57a.5.5 0 0 1 -.4-.81c4.61-6 8.94-11.36 12.86-16.06 4.31-5.17 6-12.45 4.75-20-1.06-6.12-4-11.29-7.73-13.48a.5.5 0 0 1 .51-.86c4 2.34 7.1 7.77 8.21 14.17 1.35 7.8-.46 15.36-5 20.76-3.92 4.7-8.23 10.09-12.84 16a.5.5 0 0 1 -.36.28z" fill="#ecbdbb"/><path d="m142.1 197.42a.5.5 0 0 1 -.22-.05c-4.4-2.2-12.45-.68-12.53-.67a.5.5 0 0 1 -.19-1c.34-.07 8.46-1.6 13.17.75a.5.5 0 0 1 -.23.97z" fill="#ecbdbb"/><path d="m155.92 224.26c.1.81-1.28 4-3.45 6.93a18.69 18.69 0 0 1 -3.59 3.83c-4.13 3.19-11 4.66-11.57 4.52s-6-7.44-6.38-10.37c0 0 2-9.43 8-14.22s12.1-2.8 12.49-1.73 4.37 9.84 4.5 11.04z" fill="#9ab3da"/><path d="m152.47 231.19a18.69 18.69 0 0 1 -3.59 3.83c-4.13 3.19-11 4.66-11.57 4.52 0 0 5-13.61 15.16-8.35z" fill="#404b7c"/><path d="m141.21 234s3.1-7.44 8.51-7.53l9.39 15.42s-3.72 6.73-7.53 9.75l-1.15-6.73s-7-7.5-9.22-10.91z" fill="#ecbdbb"/><path d="m150.7 252.8a.5.5 0 0 1 -.32-.88 41.58 41.58 0 0 0 8.38-10.43.5.5 0 1 1 .87.49 41.78 41.78 0 0 1 -8.63 10.7.5.5 0 0 1 -.3.12z" fill="#404b7c"/><path d="m201.23 103.19v12.51l-1.86 1a14.88 14.88 0 0 1 -7.78-3.13s.4-13.22.4-13.42h.1z" fill="#ecbdbb"/><path d="m201.23 103.19v8.28c-7.83 0-9-8.12-9.14-11.28z" fill="#404b7c"/><path d="m185.6 91s5.57 18.21 17.53 16.1 6.14-36.28-6.62-33.76-13.96 8.27-10.91 17.66z" fill="#ecbdbb"/><path d="m188.26 94.11 1.86-1s-1-3.46-2-7.11 1.47-5.65 4-4.25c0 0 1.4-3.79 4.72-3.05s5.37 13.76 14.21 12 6.65-11.89 6.65-11.89-2.59 3.72-5.85 2.32-.72-11-3-18-20.12-10.13-28.29 14.14c0 0-6.11-.18-7.85 5.27s4.85 19.79 19.81 20.66a27.94 27.94 0 0 1 -5.08-7.58z" fill="#404b7c"/><path d="m187.43 92s-2.66-3.51-6-1.34 1 9.25 9.18 6.31z" fill="#ecbdbb"/><path d="m188.23 95.65a.5.5 0 0 1 -.4-.2c-2.54-3.38-5.47-2.79-5.5-2.79a.5.5 0 1 1 -.21-1c.15 0 3.59-.73 6.51 3.16a.5.5 0 0 1 -.4.83z" fill="#404b7c"/><path d="m185.23 96.07a.5.5 0 0 1 -.41-.21 3.32 3.32 0 0 1 0-3.45.5.5 0 0 1 .88.48 2.34 2.34 0 0 0 0 2.4.5.5 0 0 1 -.47.78z" fill="#404b7c"/><path d="m191.93 89.58s1-4.15 4.13-3.39a.94.94 0 0 1 .61-1.06c.74-.19 1.35 2.11 1.35 2.11a16.42 16.42 0 0 0 -6.09 2.34z" fill="#404b7c"/><path d="m208.24 87.66s-1.11-3.74-3.06-2.18a.89.89 0 0 0 -.71-.66c-.85.05-.51 2.27-.51 2.27a6.91 6.91 0 0 1 4.28.57z" fill="#404b7c"/><ellipse cx="206.21" cy="91.2" fill="#404b7c" rx="1.6" ry="1.98" transform="matrix(.9805462 -.19628843 .19628843 .9805462 -13.89 42.24)"/><circle cx="206.42" cy="90.44" fill="#fff" r=".43" transform="matrix(.9805462 -.19628843 .19628843 .9805462 -13.73 42.27)"/><path d="m202.87 98.59h-.15a.5.5 0 0 1 -.48-.52.51.51 0 0 1 .52-.48c.07 0 1.79.06 2-1.12a.4.4 0 0 0 -.07-.4 2.6 2.6 0 0 0 -1.77-.17.5.5 0 0 1 -.58-.39l-.79-3.79a.5.5 0 0 1 1-.2l.69 3.34a2.84 2.84 0 0 1 2.17.5 1.38 1.38 0 0 1 .36 1.29c-.3 1.54-1.95 1.94-2.9 1.94z" fill="#404b7c"/><path d="m194.5 93a.5.5 0 0 1 -.35-.86 4.14 4.14 0 0 1 4.74-.48.5.5 0 1 1 -.45.89 3.15 3.15 0 0 0 -3.59.32.5.5 0 0 1 -.35.13z" fill="#404b7c"/><path d="m204.72 102s-3.54 3.65-7.35-.87z" fill="#fff"/><path d="m224 98.9-5.51.06s-4.66-4.25-.4-10.1l4.3-1.05a7.73 7.73 0 0 1 2.47 4.85 15.4 15.4 0 0 1 -.86 6.24z" fill="#9ab3da"/><path d="m224 98.9a6.33 6.33 0 0 1 -3.85-6.65 7 7 0 0 1 2.23-4.44 7.73 7.73 0 0 1 2.47 4.85 15.4 15.4 0 0 1 -.85 6.24z" fill="#404b7c"/><path d="m222.25 89.15 44.08-9.84 1 15.06-44.57 2.75s-3.26-4.25-.51-7.97z" fill="#9ab3da"/><path d="m288.68 96.24s-10.6.52-18.22.83c-4.29.19-7.63.31-7.63.23s-9-10-1.79-21.47l7-1.59 18.29-4.18z" fill="#9ab3da"/><path d="m270.46 97.07c-4.29.19-7.63.31-7.63.23s-9-10-1.79-21.47l7-1.59c-2.32 4.76-5.95 15.27 2.42 22.83z" fill="#404b7c"/><path d="m323.16 96.6s-14.83.73-25.5 1.16c-6 .27-10.68.43-10.68.33 0-.28-12.65-14-2.5-30l9.75-2.23 25.59-5.86z" fill="#9ab3da"/><path d="m297.66 97.76c-6 .27-10.68.43-10.68.33 0-.28-12.65-14-2.5-30l9.75-2.23c-3.23 6.56-8.23 21.32 3.43 31.9z" fill="#404b7c"/><path d="m336.41 97.92-12.58 1s-6.38-9.65-7-20.12 3.28-22.23 3.28-22.23l13.74-2.13a81 81 0 0 1 4 21.21 138.14 138.14 0 0 1 -1.44 22.27z" fill="#404b7c"/><path d="m336.41 97.92a55.09 55.09 0 0 1 -6.41-21.26c-.9-10.82 3.85-22.24 3.85-22.24s4.52 10.37 4.87 21.17a100.6 100.6 0 0 1 -2.31 22.33z" fill="#e9f3ff"/><path d="m240.54 80.51s-1.71 3.63-1.71 4.63.8 4.25 2.06 5.18a2.62 2.62 0 0 0 2.72.07 6.94 6.94 0 0 0 2.72.33 8.76 8.76 0 0 0 1.46-.73 5.75 5.75 0 0 0 2.39.13 4.87 4.87 0 0 0 1.59-.93 2.69 2.69 0 0 0 2 .47c.8-.33 1.26-3.39 1.53-5.25s-.33-4.85-.86-5.52-2.46-.2-2.46-.2a4.12 4.12 0 0 0 -4.45 0s-2.66-1.2-4.25.82a2.16 2.16 0 0 0 -2.74 1z" fill="#ecbdbb"/><path d="m242.42 80.83s-.28.61-.57 1.37a8 8 0 0 0 -.58 2.44 5.22 5.22 0 0 0 .28 1.42 32.6 32.6 0 0 0 1.45 3.56.5.5 0 0 0 .9-.43l-.26-.56c-.23-.52-.58-1.32-.87-2.1-.14-.39-.27-.78-.36-1.11a3.34 3.34 0 0 1 -.14-.77 7.27 7.27 0 0 1 .52-2.1c.13-.36.27-.69.37-.92l.17-.37a.5.5 0 1 0 -.91-.42z" fill="#404b7c"/><path d="m246.35 80.33s-.28.61-.57 1.37a8 8 0 0 0 -.58 2.44 5.22 5.22 0 0 0 .28 1.42 32.6 32.6 0 0 0 1.44 3.56.5.5 0 0 0 .9-.43l-.26-.56c-.23-.52-.58-1.32-.87-2.1-.14-.39-.27-.78-.36-1.11a3.34 3.34 0 0 1 -.14-.77 7.27 7.27 0 0 1 .52-2.1c.13-.36.27-.69.37-.92l.17-.37a.5.5 0 1 0 -.91-.42z" fill="#404b7c"/><path d="m251 79.83s-.31.59-.62 1.35a8 8 0 0 0 -.68 2.42 5.22 5.22 0 0 0 .2 1.4 32.6 32.6 0 0 0 1.3 3.61.5.5 0 0 0 .92-.4l-.24-.57c-.21-.53-.53-1.34-.79-2.14-.13-.4-.24-.79-.32-1.12a3.34 3.34 0 0 1 -.11-.78 7.27 7.27 0 0 1 .6-2.08c.15-.36.29-.68.4-.91l.18-.37a.5.5 0 1 0 -.89-.46z" fill="#404b7c"/><path d="m241.25 86.58a49.85 49.85 0 0 0 -4.52 6.51c-.44 1 4.92 5.67 6.69 6.56a39.9 39.9 0 0 0 4.3 1.73s3.59-1.73 3.59-5.23-8.77-4.52-8.77-4.52 1.68-6.42-1.29-5.05z" fill="#ecbdbb"/><path d="m122.46 54.5c-7 0 2.4-16.15 12.5-9.76 0 0-.18-8.85 7.44-9.56s11.08 6.53 11.12 9.56a16.66 16.66 0 0 1 7.51.45c5 1.77 3.66 9.3-1.68 9.3h-36.89z" fill="#e9f3ff"/><path d="m363.12 134.39c-7 0 2.4-16.15 12.5-9.76 0 0-.18-8.85 7.44-9.56s11.08 6.53 11.12 9.56a16.66 16.66 0 0 1 7.51.45c5 1.77 3.66 9.3-1.68 9.3h-36.89z" fill="#e9f3ff"/><g fill="#9ab3da"><circle cx="260.83" cy="184.23" r="3.99"/><circle cx="308.55" cy="292.55" r="2.26"/><circle cx="403.32" cy="186.09" r="3.72"/><circle cx="160.09" cy="84.54" r="3.72"/><circle cx="230.53" cy="54.5" r="5.05"/><path d="m375.23 273.65a.5.5 0 0 1 -.5-.5v-4.48a.5.5 0 0 1 1 0v4.48a.5.5 0 0 1 -.5.5z"/><path d="m382.76 276.7h-4.48a.5.5 0 0 1 0-1h4.48a.5.5 0 0 1 0 1z"/><path d="m375.23 284.23a.5.5 0 0 1 -.5-.5v-4.48a.5.5 0 0 1 1 0v4.48a.5.5 0 0 1 -.5.5z"/><path d="m372.18 276.7h-4.48a.5.5 0 0 1 0-1h4.48a.5.5 0 0 1 0 1z"/><path d="m255.39 208.72a.5.5 0 0 1 -.5-.5v-4.48a.5.5 0 0 1 1 0v4.48a.5.5 0 0 1 -.5.5z"/><path d="m262.92 211.77h-4.48a.5.5 0 0 1 0-1h4.48a.5.5 0 0 1 0 1z"/><path d="m255.39 219.31a.5.5 0 0 1 -.5-.5v-4.48a.5.5 0 0 1 1 0v4.48a.5.5 0 0 1 -.5.5z"/><path d="m252.33 211.77h-4.48a.5.5 0 0 1 0-1h4.48a.5.5 0 0 1 0 1z"/><path d="m130.76 108.17a.5.5 0 0 1 -.5-.5v-4.48a.5.5 0 0 1 1 0v4.48a.5.5 0 0 1 -.5.5z"/><path d="m138.29 111.22h-4.48a.5.5 0 0 1 0-1h4.48a.5.5 0 0 1 0 1z"/><path d="m130.76 118.75a.5.5 0 0 1 -.5-.5v-4.48a.5.5 0 0 1 1 0v4.48a.5.5 0 0 1 -.5.5z"/><path d="m127.71 111.22h-4.48a.5.5 0 0 1 0-1h4.48a.5.5 0 1 1 0 1z"/><path d="m293.53 124.95 30.17.66a7 7 0 0 0 5.72-.4l23.66-7.71-6.38 55.56-22.6 12.76s-.93 3.19-6.25 2.39l-33.36 12.36z"/></g><path d="m285.42 126.28 8.11-1.33-9.04 75.62-7.71-.93z" fill="#e9f3ff"/><path d="m324.22 184.11a.5.5 0 0 1 -.45-.54l5.08-57.06a.51.51 0 0 1 .54-.45.5.5 0 0 1 .45.54l-5.08 57.06a.5.5 0 0 1 -.54.45z" fill="#404b7c"/><path d="m318.06 186a.5.5 0 0 1 -.45-.55l5.69-57.89a.51.51 0 0 1 .55-.45.5.5 0 0 1 .45.55l-5.69 57.89a.5.5 0 0 1 -.55.45z" fill="#404b7c"/><path d="m333.94 134.92-1.2 14.08 12.69-4.65 1.66-13.55z" fill="#e9f3ff"/><path d="m332.61 161.47a.5.5 0 0 1 -.19-1l10.5-4.32a.5.5 0 0 1 .38.92l-10.5 4.32a.5.5 0 0 1 -.19.08z" fill="#404b7c"/><rect fill="#e9f3ff" height="43.59" rx="2.83" width="59.54" x="330.92" y="186.43"/><rect fill="#9ab3da" height="3.59" rx="1.69" width="22.47" x="359.97" y="200.63"/><rect fill="#9ab3da" height="3.59" rx="1.69" width="22.47" x="359.97" y="210.26"/><rect fill="#9ab3da" height="3.59" rx="1.69" width="14.42" x="368.02" y="219.9"/><circle cx="365.1" cy="193.78" fill="#9ab3da" r="1.66"/><circle cx="372.94" cy="193.78" fill="#9ab3da" r="1.66"/><circle cx="380.78" cy="193.78" fill="#9ab3da" r="1.66"/><path d="m309.12 195a.5.5 0 0 1 -.45-.73c.44-.86.73-1.34.73-1.34a.5.5 0 0 1 .86.51s-.28.47-.7 1.29a.5.5 0 0 1 -.44.27z" fill="#9ab3da"/><path d="m347.29 249.18q-.81 0-1.62-.06a.5.5 0 0 1 -.46-.53.51.51 0 0 1 .53-.46 22.58 22.58 0 0 0 2.91 0 .5.5 0 0 1 .06 1q-.71.05-1.42.05zm4.35-.42a.5.5 0 0 1 -.1-1c.56-.11 1.12-.25 1.67-.4l1.16-.35a.5.5 0 0 1 .31 1l-1.19.36c-.57.16-1.16.31-1.75.42h-.1zm-8.89 0h-.1a24.76 24.76 0 0 1 -2.94-.77.5.5 0 0 1 .31-1 23.69 23.69 0 0 0 2.82.74.5.5 0 0 1 -.09 1.01zm14.55-1.76a.5.5 0 0 1 -.2-1c.91-.39 1.8-.82 2.63-1.28a.5.5 0 1 1 .48.88 30.1 30.1 0 0 1 -2.73 1.32.49.49 0 0 1 -.18.08zm-20.21-.07a.5.5 0 0 1 -.21 0 23.1 23.1 0 0 1 -2.66-1.49.5.5 0 0 1 .54-.84 21.93 21.93 0 0 0 2.54 1.42.5.5 0 0 1 -.2.86zm25.42-2.8a.5.5 0 0 1 -.29-.91 25.07 25.07 0 0 0 2.29-1.81.5.5 0 1 1 .67.75 25.88 25.88 0 0 1 -2.38 1.84.5.5 0 0 1 -.28.08zm-30.39-.45a.5.5 0 0 1 -.33-.12 19.34 19.34 0 0 1 -2.13-2.19.5.5 0 1 1 .77-.64 18.29 18.29 0 0 0 2 2.08.5.5 0 0 1 -.31.82zm34.82-3.52a.5.5 0 0 1 -.38-.83 23.79 23.79 0 0 0 1.78-2.31.5.5 0 1 1 .83.56 24.87 24.87 0 0 1 -1.86 2.41.5.5 0 0 1 -.37.12zm-38.59-1.16a.5.5 0 0 1 -.44-.25 15.9 15.9 0 0 1 -1.25-2.81.5.5 0 0 1 .95-.31 14.88 14.88 0 0 0 1.17 2.63.5.5 0 0 1 -.43.74zm-1.85-5.62a.5.5 0 0 1 -.5-.38 15.41 15.41 0 0 1 -.1-1.77v-.13q0-.61 0-1.18a.39.39 0 0 0 .22-.71.5.5 0 0 1 .36-.61 17.18 17.18 0 0 0 2.73-1 .5.5 0 0 1 .41.91 18.24 18.24 0 0 1 -2.89 1 .5.5 0 0 1 .17.41v1.13l-.5.11h.5a14.27 14.27 0 0 0 .1 1.65.5.5 0 0 1 -.44.55h-.06zm-4.93-3.19h-.86a.5.5 0 0 1 -.48-.52.49.49 0 0 1 .52-.48h.84a19.31 19.31 0 0 0 2.06-.11.5.5 0 0 1 .11 1c-.76.11-1.48.14-2.19.15zm-3.79-.39h-.1a16.92 16.92 0 0 1 -2.93-.91.5.5 0 1 1 .38-.92 15.94 15.94 0 0 0 2.76.85.5.5 0 0 1 -.11 1.01zm-5.47-2.28a.5.5 0 0 1 -.28-.08 15.55 15.55 0 0 1 -2.38-1.95.5.5 0 1 1 .71-.71 14.66 14.66 0 0 0 2.23 1.82.5.5 0 0 1 -.28.96zm14.54-.06h-.11a.5.5 0 0 1 -.37-.6 11.31 11.31 0 0 1 1.08-2.92.5.5 0 0 1 .88.49 10.26 10.26 0 0 0 -1 2.66.5.5 0 0 1 -.48.41zm5.17-.43a.5.5 0 0 1 -.31-.89 4.51 4.51 0 0 0 1.42-1.73 3.23 3.23 0 0 0 .12-.38.5.5 0 1 1 1 .25 4.24 4.24 0 0 1 -.16.5 5.41 5.41 0 0 1 -1.72 2.14.5.5 0 0 1 -.37.15zm-23.91-3.68a.5.5 0 0 1 -.41-.21 18.7 18.7 0 0 1 -1.54-2.64.5.5 0 0 1 .9-.43 17.7 17.7 0 0 0 1.46 2.5.5.5 0 0 1 -.42.82zm21.75-.87a.5.5 0 0 1 -.27-.92 3.55 3.55 0 0 1 3.31-.38.5.5 0 0 1 -.42.91 2.56 2.56 0 0 0 -2.36.32.5.5 0 0 1 -.27.11zm-24.32-4.48a.5.5 0 0 1 -.48-.36 21.2 21.2 0 0 1 -.64-3 .5.5 0 1 1 1-.14 20.2 20.2 0 0 0 .61 2.84.5.5 0 0 1 -.34.62zm-.85-5.88a.5.5 0 0 1 -.5-.49v-.37c0-.86 0-1.76.13-2.66a.51.51 0 0 1 .54-.45.5.5 0 0 1 .45.54c-.08.87-.12 1.73-.12 2.56v.36a.5.5 0 0 1 -.49.51zm.54-5.93h-.09a.5.5 0 0 1 -.4-.58c.18-1 .41-1.95.68-2.94a.5.5 0 0 1 1 .26c-.26 1-.49 1.93-.66 2.87a.5.5 0 0 1 -.53.42zm1.56-5.75a.5.5 0 0 1 -.47-.67c.33-.94.7-1.88 1.09-2.81a.5.5 0 0 1 .92.39c-.39.91-.75 1.83-1.07 2.75a.5.5 0 0 1 -.47.37z" fill="#9ab3da"/><path d="m370.33 235.08a.5.5 0 0 1 -.45-.73c.26-.51.47-1 .64-1.33a.5.5 0 1 1 .91.41c-.17.38-.38.84-.65 1.37a.5.5 0 0 1 -.45.28z" fill="#9ab3da"/><path d="m369 232.58 4 1.55a.56.56 0 0 0 .76-.58l-.5-4.78a.56.56 0 0 0 -.94-.35l-3.48 3.23a.56.56 0 0 0 .16.93z" fill="#9ab3da"/></svg>