<svg clip-rule="evenodd" fill-rule="evenodd" height="6.82666in" image-rendering="optimizeQuality" shape-rendering="geometricPrecision" text-rendering="geometricPrecision" viewBox="0 0 6.82666 6.82666" width="6.82666in" xmlns="http://www.w3.org/2000/svg"><circle cx="3.41333" cy="3.41333" fill="#00838f" r="3.41333"/><g fill="#fffffe"><path d="m4.25324 4.21267c.0648661 0 .126846.0143622.182933.0401142.046815.0214921.0891575.0508937.125299.0864567.0851339.00623228.161705.0433425.218543.100181.0624724.0624724.101118.14878.101118.244094 0 .0686732-.0202047.132795-.0550197.186748-.0264213.0409409-.061248.075937-.102024.102528v.228972c0 .0432087-.0350315.0782402-.0782441.0782402h-.753803c-.0432087 0-.0782402-.0350315-.0782402-.0782402v-.215146c-.0394173-.0227953-.0734213-.0539134-.0996063-.0909567-.0361811-.0511772-.0574409-.113539-.0574409-.180732 0-.0777008.0284567-.148949.0755591-.203921.0396024-.0462165.0923898-.0808031.152516-.0979173.0364921-.0561575.0854291-.103437.142874-.137894.0661811-.0397008.143358-.0625276.225535-.0625276z" fill-rule="nonzero"/><path d="m2.84187 3.40475c-.11739-.136138-.219169-.320701-.253476-.497386l-.0037874-.0195079.0141575-.0139409c.115374-.11365.181331-.286437.229878-.437366l.0084685-.0263268.0276535.0006378c.111669.00257087.223984.00762205.335067.019689.0893819.00970866.178693.0241772.265543.0477244.156067.0423031.283728.110063.411764.208496l.0152795.0117441-.00084646.019248c-.0095315.217012-.0990669.459228-.223862.637185-.0452677.0645591-.0973504.129996-.161634.176567-.00288583.00208661-.00568504.00429528-.0083937.0066063-.0746811.0638583-.167327.100819-.265949.100819-.0987165 0-.193941-.0511102-.267177-.114008-.00162992-.00139764-.00329921-.00275591-.005-.0040748-.0434646-.0336614-.0818622-.074563-.117685-.116106zm-.00419685.574173c.132102-.0573819.165205-.116795.172882-.290669.0725945.039252.147476.0618346.221177.0618346.0772835 0 .151146-.0191535.220421-.0531496.00633071.17122.0359803.223803.1695.281197.037185-.0277087.0748701-.0547362.113106-.0803189.0426339-.0285276.124488-.0858268.178224-.0723898l.347362.0868465c.0314646.00786614.0616772.0192283.0901496.0337559.00005906-.0239488.00012598-.0477126.00019685-.0680866.00216535-.608642.00501181-1.40871-.303594-1.90427-.0904567-.14526-.201283-.252067-.337299-.322909-.134831-.0702283-.292598-.104098-.478067-.104098-.185457 0-.343213.0338701-.478043.104098-.136012.0708425-.246846.17765-.337315.322909-.151724.243661-.23402.62437-.278189 1.01778-.0374567.333626-.0477008.693484-.0498465.971976.0371496-.0230512.0778976-.040378.120996-.0511535.0261811-.00654724.0525-.0147323.0784606-.0222126.0389094-.0112126.0779134-.0221339.117205-.0319252.0680906-.0169685.207366-.0531929.267984-.00638189l.164689.127169z"/><path d="m2.48095 5.10325h1.27447v-.0848228c-.034374-.0244055-.0644843-.0545433-.0888898-.0890669-.0444567-.062878-.0681535-.137425-.0681535-.214437 0-.0890157.0317126-.174343.0896024-.241909.042815-.0499606.0980472-.0877795.159961-.109453.0397953-.0558386.0908346-.103102.149736-.138433.0773819-.0464173.165315-.0708465.255567-.0708465.0716732 0 .142169.0155394.207291.045437.0172244.00790551.0339646.0167874.0501417.0265787-.0130079-.0465236-.0350394-.0896772-.0643701-.12724-.0491102-.0628898-.118531-.109748-.200118-.13015l-.347362-.0868465c-.0711457-.0177913-.574701.40837-.663984.477307l-.597535-.461409c-.0532992-.0461732-.338957.0522362-.413807.0709488-.0815866.0204016-.151012.0672598-.200118.13015-.049189.0629921-.0778583.141705-.0778583.225697v.7785h.461906c.0130787-.126807.0261614-.25361.0392402-.380417l.0342835.380413z"/></g></svg>